<svg width="32" height="32" viewBox="0 0 32 32" fill="none" xmlns="http://www.w3.org/2000/svg">
<g clip-path="url(#clip0_734_554)">
<path d="M23.7407 7.68228C19.2258 3.56152 12.2091 3.8911 8.10046 8.41719C3.99178 12.9433 4.32236 19.9788 8.83734 24.0997C13.3522 28.2204 20.3689 27.8909 24.4775 23.3648C28.5862 18.8387 28.2555 11.803 23.7407 7.68228ZM9.09005 23.8213C4.72845 19.8404 4.40844 13.0437 8.37817 8.67066C12.3479 4.29764 19.1262 3.97962 23.4879 7.96067C27.8497 11.9417 28.1696 18.7383 24.1998 23.1113C20.2301 27.4843 13.4522 27.8026 9.09005 23.8213Z" fill="white"/>
<path d="M18.108 13.8896C18.7558 14.4808 19.6109 14.7899 20.4857 14.7489C21.3604 14.708 22.1831 14.3203 22.7725 13.671C23.3618 13.0218 23.6701 12.1643 23.629 11.2872C23.5878 10.4103 23.2008 9.58515 22.5532 8.9941C21.9055 8.40289 21.0502 8.09393 20.1754 8.13491C19.3009 8.17601 18.4782 8.56394 17.8889 9.2131C17.3002 9.86255 16.9928 10.7199 17.0339 11.5965C17.075 12.4733 17.4614 13.2978 18.108 13.8896Z" fill="#FCC608"/>
<path d="M22.9472 17.4949C22.2998 16.9037 21.4445 16.5947 20.5698 16.6357C19.6952 16.6768 18.8726 17.0646 18.2833 17.7137C17.6939 18.3631 17.3861 19.2207 17.4277 20.0976C17.4689 20.9745 17.8561 21.7994 18.5039 22.3903C19.1517 22.9813 20.0071 23.2898 20.8817 23.2484C21.7564 23.2068 22.5788 22.8185 23.1677 22.1691C23.7552 21.5195 24.0623 20.6627 24.0209 19.7866C23.9796 18.9104 23.5935 18.0863 22.9472 17.4949Z" fill="#FCC608"/>
<path d="M14.4697 17.8914C13.8222 17.3003 12.9669 16.9911 12.0921 17.032C11.2174 17.073 10.3949 17.4608 9.80525 18.1099C9.21595 18.7591 8.90772 19.6166 8.9488 20.4937C8.99017 21.3708 9.37699 22.1958 10.0246 22.7869C10.6723 23.3781 11.5276 23.687 12.4023 23.646C13.277 23.6051 14.0997 23.2171 14.689 22.568C15.2775 21.9184 15.5849 21.0611 15.5438 20.1844C15.5027 19.3077 15.1164 18.4831 14.4697 17.8914Z" fill="#FCC608"/>
<path d="M14.0741 9.39061C13.4267 8.79972 12.5718 8.49074 11.6972 8.53187C10.8228 8.5728 10.0004 8.96039 9.41109 9.60927C8.82195 10.2583 8.51386 11.1153 8.55477 11.9922C8.5958 12.869 8.98232 13.6937 9.62957 14.2848C10.2768 14.8759 11.1316 15.1853 12.0061 15.1447C12.8806 15.1039 13.7031 14.7166 14.2925 14.0679C14.8815 13.4184 15.1893 12.5611 15.1484 11.6842C15.1074 10.8074 14.7209 9.98247 14.0741 9.39061Z" fill="#FCC608"/>
<path d="M28.5935 25.8267L27.9944 25.2799L28.0365 25.2335C28.2579 24.9896 28.2403 24.612 27.9973 24.3896L27.9446 24.3415C28.7846 23.1803 29.4456 21.8992 29.9055 20.5409C29.9917 20.2685 29.9734 19.9738 29.8539 19.7144C29.7807 19.5545 29.6459 19.4315 29.4804 19.3735L28.7911 19.1469C29.4413 16.6119 29.3157 13.9392 28.4306 11.4764L29.0955 11.186C29.2589 11.1136 29.3858 10.9772 29.4465 10.8086C29.5385 10.5394 29.5256 10.2452 29.4103 9.9848C28.5995 8.17989 27.4279 6.56097 25.9679 5.22842C24.5078 3.89572 22.7905 2.8779 20.9225 2.23787C20.6508 2.15113 20.3567 2.16971 20.098 2.28978C19.9389 2.36311 19.8163 2.49822 19.7584 2.66392L19.5319 3.35441C17.0037 2.70194 14.3386 2.82749 11.8827 3.71444L11.593 3.04773C11.5207 2.88386 11.3848 2.75646 11.2167 2.69548C10.948 2.60336 10.6546 2.6162 10.395 2.73157C8.59518 3.5441 6.98076 4.71864 5.65231 6.18205C4.32386 7.64547 3.30889 9.36745 2.67105 11.2403C2.58492 11.5124 2.60335 11.8072 2.72267 12.0664C2.76173 12.1466 2.8153 12.2188 2.88067 12.2794C2.94319 12.3368 3.01707 12.38 3.09715 12.4067L3.78585 12.6339C3.13576 15.1687 3.26165 17.841 4.14684 20.3038L3.48199 20.5941C3.31857 20.6666 3.19155 20.8028 3.13078 20.9714C3.03898 21.2407 3.05185 21.535 3.16698 21.7952C3.97778 23.6001 5.14957 25.2192 6.60939 26.5516C8.06921 27.884 9.78682 28.9021 11.6548 29.5421C11.9262 29.6286 12.2202 29.6102 12.4787 29.4906C12.6381 29.4172 12.7609 29.282 12.8188 29.1159L13.0452 28.4254C15.5731 29.0777 18.2382 28.9524 20.6941 28.066L20.9843 28.7323C21.0199 28.8147 21.0727 28.889 21.1392 28.9494C21.2041 29.0077 21.279 29.0536 21.3602 29.0847C21.6291 29.1765 21.9224 29.1635 22.1823 29.0484C23.488 28.4614 24.6984 27.6814 25.7727 26.7337L25.8254 26.7819C26.0685 27.0037 26.4445 26.9863 26.6661 26.7428L26.7082 26.6964L27.3073 27.2432C27.3688 27.2994 27.4498 27.3287 27.5327 27.3247C27.6156 27.3209 27.6935 27.2841 27.7495 27.2224L28.6133 26.2709C28.6696 26.2095 28.6995 26.128 28.6957 26.0445C28.6919 25.9611 28.6551 25.883 28.5935 25.8267ZM29.3618 19.7305C29.4319 19.7572 29.4881 19.8115 29.5173 19.8809C29.5914 20.0508 29.6026 20.2416 29.5488 20.4189C29.1055 21.7282 28.4704 22.9638 27.6639 24.0853L26.8552 23.3471C27.6754 22.1798 28.296 20.8836 28.6911 19.5113L29.3618 19.7305ZM20.1159 2.78219C20.1425 2.7119 20.1966 2.65556 20.2659 2.62628C20.4354 2.55245 20.6256 2.54114 20.8024 2.59488C22.6217 3.21846 24.2941 4.20984 25.716 5.50769C27.1379 6.80539 28.279 8.38191 29.0688 10.1397C29.1421 10.3088 29.1519 10.4988 29.0969 10.6747C29.0719 10.7492 29.017 10.8097 28.9452 10.8418L28.2982 11.1245C27.574 9.28808 26.4406 7.64247 24.9842 6.31325C23.5279 4.98402 21.7874 4.00661 19.8964 3.45607L20.1159 2.78219ZM3.21499 12.0491C3.14472 12.0223 3.08852 11.968 3.05947 11.8987C2.98548 11.7287 2.97446 11.538 3.02785 11.3606C3.64946 9.53669 4.63776 7.86004 5.93161 6.43474C7.22547 5.00944 8.79748 3.86563 10.5502 3.07402C10.719 3.00071 10.9084 2.99054 11.0838 3.04578C11.1582 3.07117 11.2185 3.12626 11.2505 3.19791L11.5327 3.84676C9.70153 4.57223 8.06064 5.70865 6.73534 7.16858C5.41005 8.62851 4.4357 10.3734 3.88697 12.2695L3.21499 12.0491ZM12.4613 28.9978C12.4347 29.0681 12.3805 29.1245 12.3113 29.1537C12.142 29.2277 11.9516 29.2389 11.7748 29.1851C9.95551 28.5616 8.28311 27.5702 6.86131 26.2725C5.43934 24.9746 4.29821 23.3981 3.50844 21.6403C3.43545 21.4712 3.42525 21.2813 3.4803 21.1054C3.5056 21.0309 3.56068 20.9702 3.63244 20.9378L4.27947 20.655C5.00346 22.4913 6.13708 24.137 7.59343 25.4663C9.04978 26.7955 10.7902 27.7729 12.6812 28.3234L12.4613 28.9978ZM8.01477 25.004C3.00167 20.4285 2.63455 12.6169 7.1966 7.5914C11.7587 2.56588 19.549 2.19982 24.5622 6.77541C29.5753 11.3509 29.9424 19.1625 25.3804 24.188C20.8183 29.2135 13.0279 29.5796 8.01477 25.004ZM22.0279 28.7048C21.8591 28.7775 21.6701 28.7872 21.4949 28.7324C21.4204 28.7075 21.3599 28.6523 21.3282 28.5803L21.0456 27.9319C22.3717 27.4081 23.6017 26.666 24.6845 25.7364L25.4942 26.4755C24.4556 27.3872 23.2872 28.1383 22.0279 28.7048ZM25.1508 25.3179C25.3888 25.0931 25.6197 24.8574 25.8435 24.6109C26.0674 24.3642 26.2798 24.1116 26.481 23.8526L27.5539 24.8319L26.2236 26.2973L25.1508 25.3179ZM27.498 26.5665L27.1304 26.231L27.5728 25.7437L27.9404 26.0792L27.498 26.5665Z" fill="white"/>
</g>
<defs>
<clipPath id="clip0_734_554">
<rect width="32" height="32" fill="white"/>
</clipPath>
</defs>
</svg>
